<?xml version="1.0" standalone="no"?>
<!DOCTYPE svg PUBLIC "-//W3C//DTD SVG 20010904//EN"
 "http://www.w3.org/TR/2001/REC-SVG-20010904/DTD/svg10.dtd">
<svg version="1.0" xmlns="http://www.w3.org/2000/svg"
 width="861.000000pt" height="861.000000pt" viewBox="0 0 861.000000 861.000000"
 preserveAspectRatio="xMidYMid meet">
<metadata>
Created by potrace 1.11, written by Peter Selinger 2001-2013
</metadata>
<g transform="translate(0.000000,861.000000) scale(0.100000,-0.100000)"
fill="#000000" stroke="none">
<path d="M6876 7275 c-72 -18 -180 -74 -238 -123 -97 -82 -2110 -1912 -2201
-2001 -117 -114 -174 -190 -226 -303 -47 -100 -66 -171 -82 -302 -14 -117 -1
-277 31 -396 62 -226 241 -467 445 -601 91 -60 134 -81 227 -112 118 -39 190
-50 338 -49 168 0 288 28 435 101 295 146 523 413 960 1126 255 416 874 1535
962 1740 79 184 110 370 84 498 -16 73 -69 179 -121 239 -52 60 -170 139 -251
168 -83 29 -274 37 -363 15z"/>
<path d="M3865 3793 c-401 -31 -614 -77 -810 -175 -240 -120 -422 -333 -562
-657 -71 -165 -98 -193 -199 -206 -47 -7 -57 -4 -170 55 -77 39 -192 113 -320
206 -109 79 -207 149 -216 154 -17 10 -18 4 -18 -67 0 -91 23 -311 44 -431 65
-359 212 -692 411 -932 197 -236 477 -396 820 -470 127 -28 464 -39 612 -20
376 46 675 187 929 437 174 171 298 378 371 618 48 160 65 293 70 551 l5 242
-83 27 c-306 98 -593 329 -755 607 -42 73 -34 69 -129 61z"/>
</g>
</svg>
